# xmcd CD database file
#
# Track frame offsets:
#	150
#	19252
#	33080
#	48505
#	62250
#	74995
#	86977
#	100507
#	111837
#	129187
#
# Disc length: 1995 seconds
#
# Revision: 1
# Processed by: cddbd v1.5.2PL0 Copyright (c) Steve Scherf et al.
# Submitted via: CDex 1.79
#
DISCID=8107c90a
DTITLE=David Frizzell - For The Love of Country
DYEAR=1999
DGENRE=Country
TTITLE0=Murder On Music Row
TTITLE1=Mom And Dad's Waltz
TTITLE2=You're The Reason God Made Oklahoma
TTITLE3=Sunny Side Of The Mountain
TTITLE4=Apartment #9
TTITLE5=Lovesick Blues
TTITLE6=Waiting For A Train
TTITLE7=Boll Weevil Song
TTITLE8=Nobody's Darling But Mine
TTITLE9=I'm Thinking Tonight Of My Blue Eyes
EXTD=YEAR: 1999
EXTT0=
EXTT1=
EXTT2=
EXTT3=
EXTT4=
EXTT5=
EXTT6=
EXTT7=
EXTT8=
EXTT9=
PLAYORDER=
